0
SECTION
2
HEADER
9
$INSUNITS
70
4
9
$ACADVER
1
AC1014
9
$HANDSEED
5
FFFF
0
ENDSEC
0
SECTION
2
TABLES
0
TABLE
2
VPORT
5
8
100
AcDbSymbolTable
0
ENDTAB
0
TABLE
2
LTYPE
5
5
100
AcDbSymbolTable
0
LTYPE
5
14
100
AcDbSymbolTableRecord
100
AcDbLinetypeTableRecord
2
BYBLOCK
70
0
0
LTYPE
5
15
100
AcDbSymbolTableRecord
100
AcDbLinetypeTableRecord
2
BYLAYER
70
0
0
ENDTAB
0
TABLE
2
LAYER
5
2
100
AcDbSymbolTable
70
2
0
LAYER
5
50
100
AcDbSymbolTableRecord
100
AcDbLayerTableRecord
2
0
70
0
6
CONTINUOUS
0
ENDTAB
0
TABLE
2
STYLE
5
3
100
AcDbSymbolTable
70
1
0
STYLE
5
11
100
AcDbSymbolTableRecord
100
AcDbTextStyleTableRecord
2
STANDARD
70
0
0
ENDTAB
0
TABLE
2
VIEW
5
6
100
AcDbSymbolTable
70
0
0
ENDTAB
0
TABLE
2
UCS
5
7
100
AcDbSymbolTable
70
0
0
ENDTAB
0
TABLE
2
APPID
5
9
100
AcDbSymbolTable
70
2
0
APPID
5
12
100
AcDbSymbolTableRecord
100
AcDbRegAppTableRecord
2
ACAD
70
0
0
ENDTAB
0
TABLE
2
DIMSTYLE
5
A
100
AcDbSymbolTable
70
1
0
ENDTAB
0
TABLE
2
BLOCK_RECORD
5
1
100
AcDbSymbolTable
70
1
0
BLOCK_RECORD
5
1F
100
AcDbSymbolTableRecord
100
AcDbBlockTableRecord
2
*MODEL_SPACE
0
BLOCK_RECORD
5
1B
100
AcDbSymbolTableRecord
100
AcDbBlockTableRecord
2
*PAPER_SPACE
0
ENDTAB
0
ENDSEC
0
SECTION
2
BLOCKS
0
BLOCK
5
20
100
AcDbEntity
100
AcDbBlockBegin
2
*MODEL_SPACE
0
ENDBLK
5
21
100
AcDbEntity
100
AcDbBlockEnd
0
BLOCK
5
1C
100
AcDbEntity
100
AcDbBlockBegin
2
*PAPER_SPACE
0
ENDBLK
5
1D
100
AcDbEntity
100
AcDbBlockEnd
0
ENDSEC
0
SECTION
2
ENTITIES
0
LINE
5
100
100
AcDbEntity
8
0
100
AcDbLine
10
60.000000000000007
20
-60
30
0
11
-150
21
-60
31
0
0
LINE
5
101
100
AcDbEntity
8
0
100
AcDbLine
10
-170
20
-40
30
0
11
-170.00000000000003
21
170
31
0
0
LINE
5
102
100
AcDbEntity
8
0
100
AcDbLine
10
-150
20
190
30
0
11
60
21
190
31
0
0
LINE
5
103
100
AcDbEntity
8
0
100
AcDbLine
10
80.000000000000014
20
170
30
0
11
80
21
-40
31
0
0
LWPOLYLINE
5
104
100
AcDbEntity
8
0
100
AcDbPolyline
90
4
70
1
43
0.0
10
-240
20
170.00000000000003
10
-240
20
157.00000000000003
10
-264
20
157.00000000000003
10
-264
20
170.00000000000003
0
LWPOLYLINE
5
105
100
AcDbEntity
8
0
100
AcDbPolyline
90
6
70
1
43
0.0
10
-220
20
190.00000000000003
10
-220
20
140.00000000000003
10
-370
20
140.00000000000003
10
-370
20
190.00000000000003
10
-350
20
190.00000000000003
10
-240
20
190.00000000000003
0
LWPOLYLINE
5
106
100
AcDbEntity
8
0
100
AcDbPolyline
90
6
70
1
43
0.0
10
-275
20
185.00000000000003
10
-275
20
155.00000000000003
42
-0.41421356237309293
10
-285
20
145.00000000000003
10
-330
20
145.00000000000003
42
-0.4142135623730992
10
-340
20
155.00000000000003
10
-340
20
185.00000000000003
0
CIRCLE
5
107
100
AcDbEntity
8
0
100
AcDbCircle
10
-350
20
165.00000000000003
30
0
40
2.2499999999999902
210
0
220
0
230
1
0
CIRCLE
5
108
100
AcDbEntity
8
0
100
AcDbCircle
10
-360
20
165.00000000000003
30
0
40
2.2500000000000133
210
0
220
0
230
1
0
LINE
5
109
100
AcDbEntity
8
0
100
AcDbLine
10
-220
20
190.00000000000003
30
0
11
-235
21
190.00000000000003
31
0
0
LINE
5
110
100
AcDbEntity
8
0
100
AcDbLine
10
-370
20
190.00000000000003
30
0
11
-350
21
190.00000000000003
31
0
0
LINE
5
111
100
AcDbEntity
8
0
100
AcDbLine
10
-340
20
190.00000000000003
30
0
11
-250
21
190.00000000000003
31
0
0
LWPOLYLINE
5
112
100
AcDbEntity
8
0
100
AcDbPolyline
90
12
70
1
43
0.0
10
-220
20
19.480152387218173
10
-350
20
19.480152387218173
10
-350
20
95
10
-339.91661248297532
20
95
10
-339.91661248297532
20
99
10
-329.91661248297532
20
99
10
-329.91661248297532
20
95
10
-240
20
95
10
-240
20
99
10
-230
20
99
10
-230
20
95
10
-220
20
95
0
LWPOLYLINE
5
113
100
AcDbEntity
8
0
100
AcDbPolyline
90
4
70
1
43
0.0
10
-233.00000496208668
20
26.999998986721039
10
-267.00000546872616
20
26.999998986721039
10
-267.00000546872616
20
28.999999016523361
10
-233.00000496208668
20
28.999999016523361
0
LWPOLYLINE
5
114
100
AcDbEntity
8
0
100
AcDbPolyline
90
12
70
1
43
0.0
10
-350
20
105
10
-350
20
122.33403697147273
10
-220
20
122.33403697147273
10
-220
20
105
10
-230
20
105
10
-230
20
109
10
-240
20
109
10
-240
20
105
10
-329.91661248297532
20
105
10
-329.91661248297532
20
109
10
-339.91661248297532
20
109
10
-339.91661248297532
20
105
0
LWPOLYLINE
5
115
100
AcDbEntity
8
0
100
AcDbPolyline
90
4
70
1
43
0.0
10
80
20
-60
10
-170
20
-60
10
-170
20
190
10
80
20
190
0
LWPOLYLINE
5
116
100
AcDbEntity
8
0
100
AcDbPolyline
90
4
70
1
43
0.0
10
-180
20
-60
10
-210
20
-60
10
-210
20
190
10
-180
20
190
0
LWPOLYLINE
5
117
100
AcDbEntity
8
0
100
AcDbPolyline
90
4
70
1
43
0.0
10
90
20
-60
10
120
20
-60
10
120
20
190
10
90
20
190
0
LINE
5
118
100
AcDbEntity
8
0
100
AcDbLine
10
80
20
-60
30
0
11
76
21
-60
31
0
0
LINE
5
119
100
AcDbEntity
8
0
100
AcDbLine
10
-170
20
-60
30
0
11
-166
21
-60
31
0
0
LWPOLYLINE
5
120
100
AcDbEntity
8
0
100
AcDbPolyline
90
4
70
1
43
0.0
10
140
20
90
10
170
20
90
10
170
20
-60
10
140
20
-60
0
LWPOLYLINE
5
121
100
AcDbEntity
8
0
100
AcDbPolyline
90
4
70
1
43
0.0
10
76
20
-99.775795124135001
10
-166
20
-99.775795124135001
10
-166
20
-69.775795124135001
10
76
20
-69.775795124135001
0
LWPOLYLINE
5
122
100
AcDbEntity
8
0
100
AcDbPolyline
90
4
70
1
43
0.0
10
75
20
200
10
-45
20
200
10
-45
20
230
10
75
20
230
0
LWPOLYLINE
5
123
100
AcDbEntity
8
0
100
AcDbPolyline
90
4
70
1
43
0.0
10
-45
20
250
10
-45
20
280
10
75
20
280
10
75
20
250
0
LWPOLYLINE
5
124
100
AcDbEntity
8
0
100
AcDbPolyline
90
6
70
1
43
0.0
10
-425
20
-44.2994531431723
10
-490
20
-44.2994531431723
10
-490
20
19.999999999999996
42
-0.41421356237309453
10
-470
20
40
10
-445
20
40
42
-0.41421356237309503
10
-425
20
20
0
LWPOLYLINE
5
125
100
AcDbEntity
8
0
100
AcDbPolyline
90
4
70
1
43
0.0
10
-434.79625337142636
20
-34.401191855809614
10
-480
20
-34.401191855809614
10
-480
20
20
10
-434.79625337142636
20
20
0
LWPOLYLINE
5
126
100
AcDbEntity
8
0
100
AcDbPolyline
90
4
70
1
43
0.0
10
-230
20
-30
10
-340
20
-30
10
-340
20
0
10
-230
20
0
0
CIRCLE
5
127
100
AcDbEntity
8
0
100
AcDbCircle
10
-285
20
-15
30
0
40
10
210
0
220
0
230
1
0
CIRCLE
5
128
100
AcDbEntity
8
0
100
AcDbCircle
10
-245
20
-15
30
0
40
7.4999999999999982
210
0
220
0
230
1
0
CIRCLE
5
129
100
AcDbEntity
8
0
100
AcDbCircle
10
-325
20
-25
30
0
40
2.2500000000000089
210
0
220
0
230
1
0
CIRCLE
5
130
100
AcDbEntity
8
0
100
AcDbCircle
10
-325
20
-15
30
0
40
2.2500000000000111
210
0
220
0
230
1
0
CIRCLE
5
131
100
AcDbEntity
8
0
100
AcDbCircle
10
-325
20
-5
30
0
40
2.2499999999999956
210
0
220
0
230
1
0
LWPOLYLINE
5
132
100
AcDbEntity
8
0
100
AcDbPolyline
90
11
70
1
43
0.0
10
-400
20
50
10
-485
20
50
10
-499.92124777178731
20
57.656111811256352
10
-499.92124777178731
20
65.312223622512676
10
-400
20
65.312223622512676
10
-400
20
74.653254441997206
10
-377.58997782908932
20
74.653254441997206
42
-0.41421356237309087
10
-367.58997782908932
20
64.653254441997206
10
-367.58997782908932
20
50
42
-0.41421356237309398
10
-377.58997782908932
20
40
10
-400
20
40
0
CIRCLE
5
133
100
AcDbEntity
8
0
100
AcDbCircle
10
-395.00000365078449
20
57.000004574656487
30
0
40
0.74999999999998601
210
0
220
0
230
1
0
CIRCLE
5
134
100
AcDbEntity
8
0
100
AcDbCircle
10
-393.00000362098217
20
57.000004574656487
30
0
40
0.74999999999999289
210
0
220
0
230
1
0
CIRCLE
5
135
100
AcDbEntity
8
0
100
AcDbCircle
10
-391.00000359117985
20
57.000004574656487
30
0
40
0.74999999999998235
210
0
220
0
230
1
0
LWPOLYLINE
5
136
100
AcDbEntity
8
0
100
AcDbPolyline
90
4
70
1
43
0.0
10
-75
20
200
10
-100
20
200
10
-100
20
250
10
-75
20
250
0
LWPOLYLINE
5
137
100
AcDbEntity
8
0
100
AcDbPolyline
90
4
70
1
43
0.0
10
-75
20
275
10
-100
20
275
10
-100
20
325
10
-75
20
325
0
LWPOLYLINE
5
138
100
AcDbEntity
8
0
100
AcDbPolyline
90
4
70
1
43
0.0
10
-125
20
200
10
-150
20
200
10
-150
20
250
10
-125
20
250
0
LWPOLYLINE
5
139
100
AcDbEntity
8
0
100
AcDbPolyline
90
4
70
1
43
0.0
10
-125
20
275
10
-150
20
275
10
-150
20
325
10
-125
20
325
0
CIRCLE
5
140
100
AcDbEntity
8
0
100
AcDbCircle
10
106.05732931355176
20
-49.368719824740765
30
0
40
7.4999999999999956
210
0
220
0
230
1
0
CIRCLE
5
141
100
AcDbEntity
8
0
100
AcDbCircle
10
65
20
-85
30
0
40
7.4999999999999982
210
0
220
0
230
1
0
LWPOLYLINE
5
142
100
AcDbEntity
8
0
100
AcDbPolyline
90
4
70
1
43
0.0
10
165
20
-55
10
145
20
-55
10
145
20
-45
10
165
20
-45
0
LWPOLYLINE
5
143
100
AcDbEntity
8
0
100
AcDbPolyline
90
4
70
1
43
0.0
10
70
20
210
10
50
20
210
10
50
20
220
10
70
20
220
0
LWPOLYLINE
5
144
100
AcDbEntity
8
0
100
AcDbPolyline
90
4
70
1
43
0.0
10
70
20
260
10
50
20
260
10
50
20
270
10
70
20
270
0
LWPOLYLINE
5
145
100
AcDbEntity
8
0
100
AcDbPolyline
90
4
70
1
43
0.0
10
-175
20
250
10
-200
20
250
10
-200
20
275
10
-175
20
275
0
ENDSEC
0
SECTION
2
OBJECTS
0
DICTIONARY
5
C
100
AcDbDictionary
3
ACAD_GROUP
350
D
3
ACAD_MLINESTYLE
350
17
0
DICTIONARY
5
D
100
AcDbDictionary
0
DICTIONARY
5
1A
330
C
100
AcDbDictionary
0
DICTIONARY
5
17
100
AcDbDictionary
0
ENDSEC
0
EOF
