0
SECTION
2
HEADER
9
$INSUNITS
70
4
9
$ACADVER
1
AC1014
9
$HANDSEED
5
FFFF
0
ENDSEC
0
SECTION
2
TABLES
0
TABLE
2
VPORT
5
8
100
AcDbSymbolTable
0
ENDTAB
0
TABLE
2
LTYPE
5
5
100
AcDbSymbolTable
0
LTYPE
5
14
100
AcDbSymbolTableRecord
100
AcDbLinetypeTableRecord
2
BYBLOCK
70
0
0
LTYPE
5
15
100
AcDbSymbolTableRecord
100
AcDbLinetypeTableRecord
2
BYLAYER
70
0
0
ENDTAB
0
TABLE
2
LAYER
5
2
100
AcDbSymbolTable
70
2
0
LAYER
5
50
100
AcDbSymbolTableRecord
100
AcDbLayerTableRecord
2
0
70
0
6
CONTINUOUS
0
ENDTAB
0
TABLE
2
STYLE
5
3
100
AcDbSymbolTable
70
1
0
STYLE
5
11
100
AcDbSymbolTableRecord
100
AcDbTextStyleTableRecord
2
STANDARD
70
0
0
ENDTAB
0
TABLE
2
VIEW
5
6
100
AcDbSymbolTable
70
0
0
ENDTAB
0
TABLE
2
UCS
5
7
100
AcDbSymbolTable
70
0
0
ENDTAB
0
TABLE
2
APPID
5
9
100
AcDbSymbolTable
70
2
0
APPID
5
12
100
AcDbSymbolTableRecord
100
AcDbRegAppTableRecord
2
ACAD
70
0
0
ENDTAB
0
TABLE
2
DIMSTYLE
5
A
100
AcDbSymbolTable
70
1
0
ENDTAB
0
TABLE
2
BLOCK_RECORD
5
1
100
AcDbSymbolTable
70
1
0
BLOCK_RECORD
5
1F
100
AcDbSymbolTableRecord
100
AcDbBlockTableRecord
2
*MODEL_SPACE
0
BLOCK_RECORD
5
1B
100
AcDbSymbolTableRecord
100
AcDbBlockTableRecord
2
*PAPER_SPACE
0
ENDTAB
0
ENDSEC
0
SECTION
2
BLOCKS
0
BLOCK
5
20
100
AcDbEntity
100
AcDbBlockBegin
2
*MODEL_SPACE
0
ENDBLK
5
21
100
AcDbEntity
100
AcDbBlockEnd
0
BLOCK
5
1C
100
AcDbEntity
100
AcDbBlockBegin
2
*PAPER_SPACE
0
ENDBLK
5
1D
100
AcDbEntity
100
AcDbBlockEnd
0
ENDSEC
0
SECTION
2
ENTITIES
0
LWPOLYLINE
5
100
100
AcDbEntity
8
0
100
AcDbPolyline
90
12
70
1
43
0.0
10
220
20
50
10
260
20
50
10
260
20
-210
10
220
20
-210
10
220
20
-170
10
217
20
-170
10
217
20
-160
10
220
20
-160
10
220
20
0
10
217
20
0
10
217
20
10
10
220
20
10
0
LWPOLYLINE
5
101
100
AcDbEntity
8
0
100
AcDbPolyline
90
12
70
1
43
0.0
10
-60
20
50
10
-100
20
50
10
-100
20
-210
10
-60
20
-210
10
-60
20
-170
10
-57
20
-170
10
-57
20
-160
10
-60
20
-160
10
-60
20
0
10
-57
20
0
10
-57
20
10
10
-60
20
10
0
LWPOLYLINE
5
102
100
AcDbEntity
8
0
100
AcDbPolyline
90
12
70
1
43
0.0
10
207
20
100
10
-47
20
100
10
-47
20
60
10
-10
20
60
10
-10
20
57
10
0
20
57
10
0
20
60
10
160
20
60
10
160
20
57
10
170
20
57
10
170
20
60
10
207
20
60
0
LWPOLYLINE
5
103
100
AcDbEntity
8
0
100
AcDbPolyline
90
36
70
1
43
0.0
10
210
20
10
10
207
20
10
10
207
20
0
10
210
20
0
10
210
20
-160
10
207
20
-160
10
207
20
-170
10
210
20
-170
10
210
20
-210
10
170
20
-210
10
170
20
-207
10
160
20
-207
10
160
20
-210
10
0
20
-210
10
0
20
-207
10
-10
20
-207
10
-10
20
-210
10
-50
20
-210
10
-50
20
-170
10
-47
20
-170
10
-47
20
-160
10
-50
20
-160
10
-50
20
0
10
-47
20
0
10
-47
20
10
10
-50
20
10
10
-50
20
50
10
-10
20
50
10
-10
20
47
10
0
20
47
10
0
20
50
10
160
20
50
10
160
20
47
10
170
20
47
10
170
20
50
10
210
20
50
0
LWPOLYLINE
5
104
100
AcDbEntity
8
0
100
AcDbPolyline
90
14
70
1
43
0.0
10
170
20
-220
10
170
20
-217
10
160
20
-217
10
160
20
-220
10
0
20
-220
10
0
20
-217
10
-10
20
-217
10
-10
20
-220
10
-47
20
-220
10
-46.999999999999993
20
-260
10
8.9312877962375659
20
-260
42
0.99999999999999989
10
151.06871220376246
20
-260
10
207
20
-260
10
207
20
-220
0
LWPOLYLINE
5
105
100
AcDbEntity
8
0
100
AcDbPolyline
90
4
70
1
43
0.0
10
180
20
90
10
195
20
90
10
195
20
70
10
180
20
70
0
CIRCLE
5
106
100
AcDbEntity
8
0
100
AcDbCircle
10
-80
20
20
30
0
40
10
210
0
220
0
230
1
0
CIRCLE
5
107
100
AcDbEntity
8
0
100
AcDbCircle
10
240
20
20
30
0
40
10
210
0
220
0
230
1
0
LWPOLYLINE
5
108
100
AcDbEntity
8
0
100
AcDbPolyline
90
6
70
1
43
0.0
10
20
20
-230
10
140
20
-230
10
140
20
-255
42
-0.41421356237309576
10
125
20
-269.99999999999994
10
35
20
-270
42
-0.41421356237309365
10
20.000000000000007
20
-255.00000000000006
0
LWPOLYLINE
5
109
100
AcDbEntity
8
0
100
AcDbPolyline
90
18
70
1
43
0.0
10
-50
20
150
10
100
20
150
10
100
20
110
10
80
20
110
10
80
20
107
10
70
20
107
10
70
20
110
10
65
20
110
10
65
20
135
42
0.4142135623730987
10
59.999999999999993
20
140.00000000000003
10
35
20
140
42
0.41421356237309453
10
30
20
135
10
30
20
110
10
-20
20
110
10
-20
20
107
10
-30
20
107
10
-30
20
110
10
-50
20
110
0
LINE
5
110
100
AcDbEntity
8
0
100
AcDbLine
10
-50
20
50
30
0
11
100
21
50
31
0
0
LINE
5
111
100
AcDbEntity
8
0
100
AcDbLine
10
-50
20
-100
30
0
11
-50
21
50
31
0
0
LWPOLYLINE
5
112
100
AcDbEntity
8
0
100
AcDbPolyline
90
12
70
1
43
0.0
10
-108.49999999999996
20
-81.5
10
-111.49999999999993
20
-81.5
10
-111.49999999999993
20
-101.5
10
-151.49999999999994
20
-101.5
10
-151.5
20
48.5
10
-111.49999999999997
20
48.500000000000028
10
-111.49999999999997
20
28.500000000000032
10
-108.49999999999996
20
28.500000000000032
10
-108.49999999999996
20
18.500000000000032
10
-111.49999999999997
20
18.500000000000032
10
-111.49999999999993
20
-71.5
10
-108.49999999999996
20
-71.5
0
LINE
5
113
100
AcDbEntity
8
0
100
AcDbLine
10
100
20
50
30
0
11
100
21
47
31
0
0
LWPOLYLINE
5
114
100
AcDbEntity
8
0
100
AcDbPolyline
90
4
70
1
43
0.0
10
100
20
17
10
100
20
27
10
103
20
27
10
103
20
17
0
LINE
5
115
100
AcDbEntity
8
0
100
AcDbLine
10
100
20
17
30
0
11
100
21
27
31
0
0
LWPOLYLINE
5
116
100
AcDbEntity
8
0
100
AcDbPolyline
90
4
70
1
43
0.0
10
100
20
-83
10
100
20
-73
10
103
20
-73
10
103
20
-83
0
LINE
5
117
100
AcDbEntity
8
0
100
AcDbLine
10
100
20
-83
30
0
11
100
21
-73
31
0
0
LWPOLYLINE
5
118
100
AcDbEntity
8
0
100
AcDbPolyline
90
4
70
1
43
0.0
10
80
20
-103
10
70
20
-103
10
70
20
-106.00000000000001
10
80
20
-106.00000000000001
0
LWPOLYLINE
5
119
100
AcDbEntity
8
0
100
AcDbPolyline
90
4
70
1
43
0.0
10
-20
20
-103
10
-30
20
-103
10
-30
20
-106.00000000000001
10
-20
20
-106.00000000000001
0
LWPOLYLINE
5
120
100
AcDbEntity
8
0
100
AcDbPolyline
90
4
70
1
43
0.0
10
-35
20
135
10
-12.5
20
135
10
-12.5
20
123
10
-35
20
123
0
LWPOLYLINE
5
121
100
AcDbEntity
8
0
100
AcDbPolyline
90
12
70
1
43
0.0
10
-161.49999999999994
20
18.500000000000032
10
-161.49999999999991
20
-71.5
10
-158.49999999999994
20
-71.5
10
-158.49999999999994
20
-81.5
10
-161.49999999999991
20
-81.5
10
-161.49999999999991
20
-101.5
10
-201.49999999999991
20
-101.5
10
-201.5
20
48.5
10
-161.49999999999994
20
48.500000000000028
10
-161.49999999999994
20
28.500000000000032
10
-158.49999999999994
20
28.500000000000032
10
-158.49999999999994
20
18.500000000000032
0
LWPOLYLINE
5
122
100
AcDbEntity
8
0
100
AcDbPolyline
90
12
70
1
43
0.0
10
102.51412742032656
20
150
10
206.51412742032653
20
150
10
206.51412742032653
20
110
10
186.51412742032653
20
110
10
186.51412742032653
20
107
10
176.51412742032653
20
107
10
176.51412742032653
20
110
10
132.51412742032656
20
110
10
132.51412742032656
20
107
10
122.51412742032656
20
107
10
122.51412742032656
20
110
10
102.51412742032656
20
110
0
LINE
5
123
100
AcDbEntity
8
0
100
AcDbLine
10
102.51412742032656
20
110
30
0
11
122.51412742032656
21
110
31
0
0
LINE
5
124
100
AcDbEntity
8
0
100
AcDbLine
10
206.51412742032653
20
110
30
0
11
186.51412742032653
21
110
31
0
0
LWPOLYLINE
5
125
100
AcDbEntity
8
0
100
AcDbPolyline
90
4
70
1
43
0.0
10
123
20
-103
10
133
20
-103
10
133
20
-106.00000000000001
10
123
20
-106.00000000000001
0
LWPOLYLINE
5
126
100
AcDbEntity
8
0
100
AcDbPolyline
90
4
70
1
43
0.0
10
177
20
-103
10
187
20
-103
10
187
20
-106.00000000000001
10
177
20
-106.00000000000001
0
LWPOLYLINE
5
127
100
AcDbEntity
8
0
100
AcDbPolyline
90
4
70
1
43
0.0
10
270
20
50
10
530
20
50
10
530
20
-106.00000000000001
10
270
20
-106.00000000000001
0
LWPOLYLINE
5
128
100
AcDbEntity
8
0
100
AcDbPolyline
90
4
70
1
43
0.0
10
-190
20
40
10
-170
20
40
10
-170
20
15
10
-190
20
15
0
LWPOLYLINE
5
129
100
AcDbEntity
8
0
100
AcDbPolyline
90
4
70
1
43
0.0
10
-140
20
40
10
-120
20
40
10
-120
20
15
10
-140
20
15
0
LWPOLYLINE
5
130
100
AcDbEntity
8
0
100
AcDbPolyline
90
4
70
1
43
0.0
10
270
20
-120
10
380
20
-120
10
380
20
-224
10
270
20
-224
0
LWPOLYLINE
5
131
100
AcDbEntity
8
0
100
AcDbPolyline
90
4
70
1
43
0.0
10
307.00000457465649
20
-150.00000223517418
10
347.00000457465649
20
-150.00000223517418
10
347.00000457465649
20
-190.00000223517418
10
307.00000457465649
20
-190.00000223517418
0
LWPOLYLINE
5
132
100
AcDbEntity
8
0
100
AcDbPolyline
90
4
70
1
43
0.0
10
160
20
135
10
195
20
135
10
195
20
125
10
160
20
125
0
ENDSEC
0
SECTION
2
OBJECTS
0
DICTIONARY
5
C
100
AcDbDictionary
3
ACAD_GROUP
350
D
3
ACAD_MLINESTYLE
350
17
0
DICTIONARY
5
D
100
AcDbDictionary
0
DICTIONARY
5
1A
330
C
100
AcDbDictionary
0
DICTIONARY
5
17
100
AcDbDictionary
0
ENDSEC
0
EOF
